<svg xmlns="http://www.w3.org/2000/svg" viewBox="0 0 454.3 454.3"><defs><style>.cls-1{fill:none;}.cls-2{fill:#fff;}</style></defs><g id="Layer_2" data-name="Layer 2"><g id="Layer_1-2" data-name="Layer 1"><rect class="cls-1" width="454.3" height="454.3"/><path class="cls-2" d="M227.08,248.35c-2.48-6.68-4.94-13.38-7.43-20.06a240.28,240.28,0,0,0-25.09-49.45c-8-12-17.15-23-29.53-30.83a39.14,39.14,0,0,0-13.75-5.23c-2.2-.42-2.23-1.26-1.6-2.93,9.49-25.07,19.44-49.91,33.21-73.06,6.47-10.89,13.36-21.41,22.45-30.28,5-4.92,10.54-9.38,17.94-10.49s13.49,2.16,18.87,6.8c9.13,7.86,15.68,17.76,21.53,28.15,14.5,25.74,24.18,53.42,32.69,81.57.32,1.06.5,1.8-.76,2.38-20.65,9.49-32.05,27.69-43.09,46.13-9.1,15.2-15.65,31.62-21.86,48.16-1.1,3-1.83,6.06-2.73,9.09Z"/><path class="cls-2" d="M220.53,283.62c-.11,9.53-.11,9.61-8.86,9.18a109.1,109.1,0,0,1-57.13-19.52c-13-8.93-19.91-22.63-24.45-37.49A99.36,99.36,0,0,1,126,204c.36-13.65,2.24-27.09,8.4-39.56.38-.78.77-1.55,1.2-2.3,4.56-7.84,8.93-9.74,18.7-5.7,9.41,3.9,16.11,11.37,22.22,19.19,13,16.57,22.45,35.13,30.19,54.61,5.82,14.67,10.79,29.61,13,45.32C220.07,278.2,220.25,280.91,220.53,283.62Z"/><path class="cls-2" d="M328.27,202.94c-.28,22.95-6.07,43-20.58,59.88-8.63,10.05-19.49,17.08-31.71,22s-24.85,7.28-37.88,8.27c-2.9.22-3.72-.84-4-3.33-.75-7.25.4-14.37,1.9-21.37a242,242,0,0,1,18.33-53c8.34-17.59,17.73-34.58,31.53-48.63,5.68-5.77,11.78-11,20.31-12.14,5.11-.67,8.83,1.22,11.51,5.63a68,68,0,0,1,9.65,31.53C327.62,195.85,328.55,199.86,328.27,202.94Z"/><path class="cls-2" d="M357.37,163.09c-.14,22-4.26,43.15-14.57,62.81-1,1.83-2.19,3.51-3.29,5.26-.38.61-.71,1.52-1.59.91-.31-.22-.35-1.2-.16-1.69,2.21-5.78,2.32-11.9,3.16-17.93,1.1-7.84.39-15.59-.49-23.32-1.34-11.72-4.43-23-10.39-33.29-4.17-7.24-9.79-12.36-18.45-13.18-1.78-.17-2.25-1.19-2.63-2.58a450.18,450.18,0,0,0-27.53-73.29c-2.12-4.45-4.63-8.73-7.12-13-.93-1.59-1.09-2.82,0-4.39,6.12-8.85,12.36-17.61,20.64-24.64.29-.24.54-.52.82-.76,7.07-5.82,9.19-5.21,14.06,2.52a426.68,426.68,0,0,1,24.34,43.64,249.59,249.59,0,0,1,18.86,54A172.94,172.94,0,0,1,357.37,163.09Z"/><path class="cls-2" d="M114.26,231.2a126.4,126.4,0,0,1-13-32,154.29,154.29,0,0,1-3.17-55.55c3.54-30.06,13.69-58,27.51-84.66a389.46,389.46,0,0,1,21-35.78c2.49-3.75,3.54-4,7.63-1.85,7.08,3.75,11.94,9.91,16.85,15.94,2.73,3.35,6.47,6.7,7.25,10.56s-3.74,7.32-5.86,11c-15.38,26.34-27,54.34-37,83.05a10.22,10.22,0,0,1-3.47,5c-6.78,5.32-10.26,12.85-13,20.73-6.45,18.84-7.72,38.14-4.6,57.77a7.91,7.91,0,0,1,0,3C114.25,229.24,115.52,230.11,114.26,231.2Z"/><path class="cls-2" d="M227.45,305.79c5,0,9.91,0,14.87,0,1.78,0,2.61.32,1.62,2.32-5.94,12-6.59,25.07-7.19,38a266.85,266.85,0,0,0,2.15,50.05c1.73,12.12,1.77,24.41,4,36.47.27,1.46-.29,1.74-1.5,1.74H211.26c-2.4,0-1.65-1.75-1.49-2.91.76-5.36,1.65-10.71,2.47-16.06a17.7,17.7,0,0,0,.4-3.67c-.44-6.12,1-12.05,1.88-18,.64-4.53,1.19-9.14,1.39-13.61.76-16.56,2.22-33.17.14-49.72-.89-7.08-2.08-14.18-4.9-20.85-1.14-2.7-.57-3.73,2.56-3.57,4.57.23,9.16.06,13.74.06Z"/></g></g></svg>