<svg xmlns="http://www.w3.org/2000/svg" viewBox="0 0 454.3 454.3"><defs><style>.cls-1{fill:none;}.cls-2,.cls-3{fill:#fff;}.cls-2{opacity:0.75;}</style></defs><g id="Layer_2" data-name="Layer 2"><g id="Layer_1-2" data-name="Layer 1"><rect class="cls-1" width="454.3" height="454.3"/><path class="cls-2" d="M385.48,349.49c8.83-13.54,9-28.68,7.48-43.66a260.61,260.61,0,0,0-14.33-62.43c-1.39-3.85-2.54-7.86-8-8.7s-6.65,2.89-8.28,6.35c-2.09,4.46-5.22,2.61-7.3.73-11-9.95-26.05-6.41-38.29-12.09-2.73-1.26-3.94,1.28-4.36,3.22-.77,3.51-1.58,7.19-1.3,10.71,2,25.6,4,51.2,6.63,76.73.91,8.77.88,17.49,1.15,26.24.26,8.33.91,16.27,4.37,24.32,7.12,16.59-1,27.2-18.76,25.94-9.95-.7-19.91-1.39-29.85-2.28C264,393.62,262,391.1,264.46,380.5c1.82-7.95,4-15.76,4.11-24,.16-9.46-.47-18.68-4.72-27.37-5.58-11.38-3.42-23.71-4.16-35.68-.2-3.2.91-8.2-2.82-8.64-4.31-.52-4.47,4.47-5.4,8-5.19,19.81-9.94,39.74-19.69,58.08-5.55,10.45-13.51,17.64-24.43,21.65-8.41,3.09-16.95,5.87-25.43,8.77-3.53,1.2-7.19,1-10.79.61-10.71-1.31-11.46-2.87-10.82-13.67.81-13.49,3.3-26.3,10.73-37.86,2.37-3.69,5.09-6.61,9.44-7.88,8.5-2.48,15-14.12,13.24-23.06-.91-4.7-3.88-4.92-7.42-3.92-11.62,3.3-23.27,6.29-35.38,7.37-5.55.49-9,3.9-10.85,9.46-5.6,17-7.19,33.61,2.28,49.87a71.09,71.09,0,0,1,4.17,9c4.19,10.36,1.52,15.13-8.75,18.74-15.51,5.44-30.85,7.54-46.81,1.9-5.46-1.92-11.4-1.26-17,.13-13.22,3.25-25.66.61-38-4.16-4.55-1.76-6.31-4.17-5.33-8.74,1.63-7.66,3.33-15.31,5-23,3.76-17.79,7.14-35.59,15.26-52.24,4.26-8.73,2-19.1,3.3-28.65,1.37-10.19,4.75-19.91,7.64-29.74,1.14-3.89,3.57-9.79-1.16-11.07-3.86-1-6.29,5-7.11,9.13-2.87,14.81-6.06,29.59-6.91,44.71-.69,12.26-2.85,24-11.17,33.76-2,2.37-3.86,5-7.41,3.68-3.05-1.16-3.07-4.21-3.22-6.93-.32-5.91.56-11.91,4.44-16.27,8.07-9.06,9-20,10.14-31.18,3.14-31.54,5.83-63.15,12.69-94.2,3.8-17.22,11-32.49,24.45-44.44,5.42-4.81,10.41-10.11,15.48-15.31,26.7-27.45,59.65-38.12,97.38-38,16.23,0,31.83,3,47.55,5.64,12.4,2,22.61-.71,31.87-8.79,4.78-4.17,9.71-8.19,14.8-12,11.94-8.9,26.33-9.2,38.11-.45a45.55,45.55,0,0,0,17.67,8c13.86,3.13,24,11,28.6,24.91,1.27,3.82,3,7.34,5.91,10,18.45,16.88,23.84,39.66,28.59,62.73,2,9.54,4.06,19.11,5.22,28.77s5.75,15.25,15.67,16.37c2.59.29,6.35-.49,6.37,4.43,0,3.94-1.85,5.28-5.3,5.78-6.17.9-5.37,5.39-4.66,9.64,4.33,25.94,8.35,51.89,6.42,78.36-1.11,15.25-4.22,29.83-12.35,43-9.08,14.76-23.33,20.64-40.27,17.55-9.2-1.68-13.2-8-16-15.51-1.94-5.23.5-9.36,5.76-11.63C372.51,342.15,377.9,342.89,385.48,349.49ZM349.8,222.17a2.17,2.17,0,0,0,.27.64c.08.1.33.05.5.06l-.85-.62c0-2.7.37-5.48-.14-8.08-1.37-7-5-14.94,7.72-14.42.65,0,1.46-1,2-1.65,6-7.22,9.31-3.93,11.5,3,3.75,11.85,13.2,15.68,24.15,17.35,4.74.71,8.24.76,6.37-6.43-3.7-14.29-6.5-28.82-9.41-43.3-2.5-12.47-5.12-24.85-11.34-36.13-4.08-7.41-8.09-13.77-18.84-10.47-6.76,2.08-11-2.66-10-9.93.5-3.8,2.34-7.43,3.6-11.12.56-1.63,1.86-3,.8-5-3.86-7.43-17.05-12.95-25.62-9.88-7.59,2.73-11.9.65-14.79-6.78-4.38-11.27-15.36-15.13-25.29-8.53-5.05,3.35-10.45,6-14.95,10.65C260,97.27,240.78,98.46,220,94.54c-19.3-3.66-39-5.42-58.59-2.33C131,97,108.73,115.27,90.27,138.54c-11.89,15-20.47,31.5-15.82,51.78,4.58,20,9.1,40,13.77,59.93,1.46,6.21,2.76,12.22.72,18.69-1.6,5.05-1.15,11.16,2.36,14.72,12.06,12.26,9.77,27.13,8.77,41.75-1,15-3.08,30-4,45-.67,10.73,1.26,12.26,11.78,11.55a55,55,0,0,0,8.85-1.69c12.22-2.89,15.17-7.26,10.7-19.14-5.87-15.63-5.91-31.33-2.79-47.26,2.15-10.94,5.19-21.71,2-33-1.8-6.38-3.4-12.83-4.74-19.33-2.15-10.39-3.7-20.71,1.28-31,5.55-11.46,19.18-16.24,23.3-28.91.55-1.7,3.93-3.13,6.41-2,2.79,1.32,1.89,3.9,1.62,6.36-.7,6.39-3.13,12.27-5,18.32-.68,2.22-2.55,5,.59,6.34,5.86,2.48,9.05,7.88,13.81,11.53,7.79,6,11.86,4.84,15.63-4.21q7.85-18.81,15.87-37.52c1.13-2.64,1.9-6.39,6-5.38,4.35,1.06,3.24,5,2.35,7.48-3,8.45-2.18,17.77-7,25.92a19.23,19.23,0,0,0-2.21,15c3.58-6.21,9.16-9.33,10.34-15.8a5.61,5.61,0,0,1,5-4.67c2-.13,4.66.41,5.82,1.72,2.14,2.41,0,5.34-1.14,7.48-9.87,18.44-13.72,37.77-10.23,58.59.88,5.29.39,10.87.11,16.3-.75,14.57-5.67,21.29-19,25.76-2.6.87-3.83,2.61-5.34,4.49a45.12,45.12,0,0,0-9.24,22.3c-.43,3-1.89,6.34.47,8.62,2.6,2.52,5.84.24,8.45-.87,9.44-4,18.67-8.47,28.11-12.47,6-2.54,10.94-7.14,12.25-12.65,4.49-18.82,15-35.71,15.84-55.86.7-16,1.36-32.92,13.11-46.08,5.11-5.72,8.77-12.19,12.17-19,9.08-18.1,4.92-31.48-11.28-43.27-13.21-9.62-22.91-22.18-19.83-40.42.68-4,1.4-7.56,6.24-8.82,11.69-3.05,19.77-10.91,27.06-20.17a102.32,102.32,0,0,1,26.75-24.23c3.49-2.14,6.12-2,8.88.66,3.44,3.32,1.06,6.38-1,8.73s-4.93,4.91-7.9,5.82c-8.06,2.46-13.61,8-18.34,14.25a104.28,104.28,0,0,1-22.22,21.08c-2.85,2.06-6.83,3.84-6.27,9,12.25-6.6,20.48-3.88,20.58,6.76.14,13.95,8,25.06,12.68,37.34,1.68,4.42,4.74,4.74,6.81.14,3.34-7.42,6.91-14.83,9.18-22.59,2.16-7.37,7.14-10.73,13.61-13.09,2.66-1,5.35-1.64,7.57.74s1.34,5.21-.09,7.56c-3.92,6.42-8.07,12.69-12.11,19a37.78,37.78,0,0,0-6,18.75c-.09,1.93.69,4,2.73,4.14,2.55.23,2.35-2.17,2.57-3.89.53-4.19,1-8.38,1.56-12.56.63-4.62,10.26-11.69,15.64-11.26,7.29.59,5.88,6.49,6.16,11a76.05,76.05,0,0,1-.36,11.78c-.56,5.86.83,11,5.85,14.29C336,216.47,342.06,221,349.8,222.17Zm15.92,133.32a19.4,19.4,0,0,0,30.94,7.11c6.67-6,12.3-12.88,15.41-21.72,10.77-30.63,7.51-61.14-.19-91.66-4-15.76-4-15.56-19.81-11.52-4.26,1.09-6,1.74-4.56,6.93,3.87,14.22,7.35,28.59,10.05,43.07,3.72,19.95,5.62,40-2.25,59.62-3.52,8.76-8.12,11.27-17.41,9.2C373.9,355.63,370,353.48,365.72,355.49Zm-66.55-83.94c-19.52,12.85-21.05,16.65-15.76,36.05a12,12,0,0,1,.78,3.51c-.81,20.72,3.18,41.68-2.81,62.14-1.38,4.74.15,6.95,5,7,6.94.07,13.89-.05,20.83.18,5.33.18,7.1-1.76,5.62-7.08-1.37-4.91-3.42-10.14-2.88-15C313.2,328.82,300.09,301.59,299.17,271.55ZM66.76,306c-4.73,2.64-4.05,7.95-7.18,10.75s-7.47,4.49-7.28,9.64c.53,14.41-2.85,28.08-7.65,41.5a14.71,14.71,0,0,0,.57,12.28,9.17,9.17,0,0,0,10,4.64c4-.83,1-4.43.66-6.74a7.77,7.77,0,0,1,2.94-7.18c3.86-3.46,5.06-8.2,5.62-13,1-8.77,2.9-17.23,7.46-24.91,2.7-4.55,2.62-9.05.32-13.8C70.23,315.12,68.75,310.86,66.76,306ZM365,221.44c7.06,8.77,17.13,10.3,22.85,3.75C380.53,223.27,373.82,218.33,365,221.44Z"/><path class="cls-3" d="M349.8,222.17c-7.74-1.15-13.85-5.7-20.09-9.83-5-3.33-6.41-8.43-5.85-14.29a76.05,76.05,0,0,0,.36-11.78c-.28-4.53,1.13-10.43-6.16-11-5.38-.43-15,6.64-15.64,11.26-.57,4.18-1,8.37-1.56,12.56-.22,1.72,0,4.12-2.57,3.89-2-.19-2.82-2.21-2.73-4.14a37.78,37.78,0,0,1,6-18.75c4-6.34,8.19-12.61,12.11-19,1.43-2.35,2.35-5.12.09-7.56s-4.91-1.71-7.57-.74c-6.47,2.36-11.45,5.72-13.61,13.09-2.27,7.76-5.84,15.17-9.18,22.59-2.07,4.6-5.13,4.28-6.81-.14C272,176,264.07,164.89,263.93,150.94c-.1-10.64-8.33-13.36-20.58-6.76-.56-5.18,3.42-7,6.27-9a104.28,104.28,0,0,0,22.22-21.08c4.73-6.2,10.28-11.79,18.34-14.25,3-.91,5.76-3.4,7.9-5.82s4.46-5.41,1-8.73c-2.76-2.66-5.39-2.8-8.88-.66a102.32,102.32,0,0,0-26.75,24.23C256.18,118.11,248.1,126,236.41,129c-4.84,1.26-5.56,4.78-6.24,8.82-3.08,18.24,6.62,30.8,19.83,40.42,16.2,11.79,20.36,25.17,11.28,43.27-3.4,6.78-7.06,13.25-12.17,19-11.75,13.16-12.41,30.1-13.11,46.08-.89,20.15-11.35,37-15.84,55.86-1.31,5.51-6.27,10.11-12.25,12.65-9.44,4-18.67,8.47-28.11,12.47-2.61,1.11-5.85,3.39-8.45.87-2.36-2.28-.9-5.62-.47-8.62a45.12,45.12,0,0,1,9.24-22.3c1.51-1.88,2.74-3.62,5.34-4.49,13.32-4.47,18.24-11.19,19-25.76.28-5.43.77-11-.11-16.3-3.49-20.82.36-40.15,10.23-58.59,1.14-2.14,3.28-5.07,1.14-7.48-1.16-1.31-3.87-1.85-5.82-1.72a5.61,5.61,0,0,0-5,4.67c-1.18,6.47-6.76,9.59-10.34,15.8a19.23,19.23,0,0,1,2.21-15c4.82-8.15,4-17.47,7-25.92.89-2.5,2-6.42-2.35-7.48-4.13-1-4.9,2.74-6,5.38q-8.06,18.7-15.87,37.52c-3.77,9-7.84,10.17-15.63,4.21-4.76-3.65-7.95-9.05-13.81-11.53-3.14-1.33-1.27-4.12-.59-6.34,1.83-6.05,4.26-11.93,5-18.32.27-2.46,1.17-5-1.62-6.36-2.48-1.17-5.86.26-6.41,2-4.12,12.67-17.75,17.45-23.3,28.91-5,10.26-3.43,20.58-1.28,31,1.34,6.5,2.94,13,4.74,19.33,3.17,11.28.13,22.05-2,33-3.12,15.93-3.08,31.63,2.79,47.26,4.47,11.88,1.52,16.25-10.7,19.14a55,55,0,0,1-8.85,1.69c-10.52.71-12.45-.82-11.78-11.55.95-15,3-30,4-45,1-14.62,3.29-29.49-8.77-41.75-3.51-3.56-4-9.67-2.36-14.72,2-6.47.74-12.48-.72-18.69-4.67-20-9.19-39.95-13.77-59.93C69.8,170,78.38,153.53,90.27,138.54,108.73,115.27,131,97,161.42,92.21,181,89.12,200.71,90.88,220,94.54c20.77,3.92,39.94,2.73,55.46-13.09,4.5-4.6,9.9-7.3,14.95-10.65,9.93-6.6,20.91-2.74,25.29,8.53,2.89,7.43,7.2,9.51,14.79,6.78,8.57-3.07,21.76,2.45,25.62,9.88,1.06,2.06-.24,3.41-.8,5-1.26,3.69-3.1,7.32-3.6,11.12-1,7.27,3.27,12,10,9.93,10.75-3.3,14.76,3.06,18.84,10.47,6.22,11.28,8.84,23.66,11.34,36.13,2.91,14.48,5.71,29,9.41,43.3,1.87,7.19-1.63,7.14-6.37,6.43-11-1.67-20.4-5.5-24.15-17.35-2.19-6.89-5.54-10.18-11.5-3-.56.67-1.37,1.68-2,1.65-12.68-.52-9.09,7.39-7.72,14.42.51,2.6.12,5.38.14,8.08Zm12-59.83c.18-3.64-8.92-10.59-14.11-10.85-2-.1-4.4-.57-4.79,2.55-.52,4.28,8.64,14.85,12.89,14.85C360.31,168.89,360.7,165.2,361.82,162.34Zm-70-49.56c.56,2.85-.47,7.42,4.48,6.94,3.32-.32,7.65-2.09,7.31-6.33-.31-3.71-2.36-8.16-6.73-8.51C291.8,104.47,292,109,291.8,112.78Zm54.05,63.36c-.37-2-1.23-4.19-4.28-4.12-2,0-3.54,1.26-3.39,3.39.18,2.5,1.06,4.79,4.25,4.71C344.57,180.07,345.68,178.87,345.85,176.14Z"/><path class="cls-3" d="M365.72,355.49c4.27-2,8.18.14,12.18,1,9.29,2.07,13.89-.44,17.41-9.2,7.87-19.62,6-39.67,2.25-59.62-2.7-14.48-6.18-28.85-10.05-43.07-1.42-5.19.3-5.84,4.56-6.93,15.81-4,15.84-4.24,19.81,11.52,7.7,30.52,11,61,.19,91.66-3.11,8.84-8.74,15.75-15.41,21.72A19.4,19.4,0,0,1,365.72,355.49Z"/><path class="cls-3" d="M299.17,271.55c.92,30,14,57.27,10.76,86.82-.54,4.84,1.51,10.07,2.88,15,1.48,5.32-.29,7.26-5.62,7.08-6.94-.23-13.89-.11-20.83-.18-4.83-.05-6.36-2.26-5-7,6-20.46,2-41.42,2.81-62.14a12,12,0,0,0-.78-3.51C278.12,288.2,279.65,284.4,299.17,271.55Z"/><path class="cls-3" d="M66.76,306c2,4.89,3.47,9.15,5.43,13.18,2.3,4.75,2.38,9.25-.32,13.8-4.56,7.68-6.43,16.14-7.46,24.91-.56,4.8-1.76,9.54-5.62,13A7.77,7.77,0,0,0,55.85,378c.29,2.31,3.36,5.91-.66,6.74a9.17,9.17,0,0,1-10-4.64,14.71,14.71,0,0,1-.57-12.28c4.8-13.42,8.18-27.09,7.65-41.5-.19-5.15,4.21-6.89,7.28-9.64S62,308.61,66.76,306Z"/><path class="cls-3" d="M365,221.44c8.87-3.11,15.58,1.83,22.85,3.75C382.08,231.74,372,230.21,365,221.44Z"/><path class="cls-3" d="M349.72,222.25l.85.62c-.17,0-.42,0-.5-.06a2.17,2.17,0,0,1-.27-.64Z"/><path class="cls-3" d="M361.82,162.34c-1.12,2.86-1.51,6.55-6,6.55-4.25,0-13.41-10.57-12.89-14.85.39-3.12,2.76-2.65,4.79-2.55C352.9,151.75,362,158.7,361.82,162.34Z"/><path class="cls-3" d="M291.8,112.78c.2-3.79,0-8.31,5.06-7.9,4.37.35,6.42,4.8,6.73,8.51.34,4.24-4,6-7.31,6.33C291.33,120.2,292.36,115.63,291.8,112.78Z"/><path class="cls-3" d="M345.85,176.14c-.17,2.73-1.28,3.93-3.42,4-3.19.08-4.07-2.21-4.25-4.71-.15-2.13,1.43-3.34,3.39-3.39C344.62,172,345.48,174.18,345.85,176.14Z"/></g></g></svg>